<?xml version="1.0" standalone="no"?><!DOCTYPE svg PUBLIC "-//W3C//DTD SVG 1.1//EN" "http://www.w3.org/Graphics/SVG/1.1/DTD/svg11.dtd"><svg class="icon" width="200px" height="200.00px" viewBox="0 0 1024 1024" version="1.1" xmlns="http://www.w3.org/2000/svg"><path fill="#e6e6e6" d="M726.421534 65.510016 297.578466 65.510016c-39.421848 0-71.473845 32.252565-71.473845 71.916936l0 749.143025c0 39.661302 32.051997 71.92103 71.473845 71.92103l428.843068 0c39.417755 0 71.473845-32.259728 71.473845-71.92103L797.895379 137.426953C797.895379 97.762581 765.839289 65.510016 726.421534 65.510016zM726.421534 137.426953l0.040932 608.674806L297.578466 746.101759 297.578466 137.426953 726.421534 137.426953zM476.263078 849.310376c0-19.859303 15.981996-35.95898 35.736922-35.95898 19.751856 0 35.736922 16.099676 35.736922 35.95898s-15.985066 35.96205-35.736922 35.96205C492.244051 885.272425 476.263078 869.169679 476.263078 849.310376z" /></svg>