<?xml version="1.0" standalone="no"?><!DOCTYPE svg PUBLIC "-//W3C//DTD SVG 1.1//EN" "http://www.w3.org/Graphics/SVG/1.1/DTD/svg11.dtd"><svg class="icon" width="200px" height="200.00px" viewBox="0 0 1024 1024" version="1.1" xmlns="http://www.w3.org/2000/svg"><path fill="#e6e6e6" d="M444.573843 534.330588c37.636179 37.024242 98.674347 37.024242 136.310525 0l378.017496-263.97616c0.434905 3.055592 0.916882 6.113231 0.916882 9.256828l0 385.700479L959.818747 760.145613c0 34.92851-28.773324 63.22088-64.225767 63.22088L129.865231 823.366494c-35.453467 0-64.225767-28.29237-64.225767-63.22088L65.639464 545.157167 65.639464 279.612279c0-3.143597 0.479931-6.201236 0.916882-9.256828L444.573843 534.330588zM922.662499 203.467041 554.42474 457.834356c-32.002878 31.523971-51.826366 31.523971-83.82822 0L102.532723 203.641003c8.29492-3.841491 17.507746-6.199189 27.332509-6.199189l765.727749 0C905.285736 197.441814 914.411581 199.712531 922.662499 203.467041z" /></svg>